<?xml version="1.0" encoding="utf-8"?>
<!-- Generator: Adobe Illustrator 19.0.0, SVG Export Plug-In . SVG Version: 6.00 Build 0)  -->
<svg version="1.1" id="Capa_1" xmlns="http://www.w3.org/2000/svg" xmlns:xlink="http://www.w3.org/1999/xlink" x="0px" y="0px"
	 viewBox="0 0 800 800" style="enable-background:new 0 0 800 800;" xml:space="preserve">
<style type="text/css">
	.st0{fill:#EE3432;}
	.st1{fill:none;stroke:#EE3432;stroke-width:2;stroke-miterlimit:10;}
</style>
<g id="XMLID_2_">
	<path id="XMLID_17_" class="st0" d="M711.7,552.4c0,76.6-88.3,65.6-132.2,99.4c-47.2,36.3-60.8,106-132.5,99.4
		c-65.5-6-105.2-78.9-130.7-131.7c-33-68.1-55.2-140.9-93-206.9c-35-61.2-109.7-100.1-130.1-168c-9-30.1-7.2-62.4,18.5-83.8
		c29.2-24.3,64.7-15.9,99.4-16.6c74.5-1.7,106.7-95.7,176.4-96c75.5-0.2,78.9,115.6,105.3,163.6c18.5,33.6,55.7,42.4,87.3,61
		c32.4,19,71.3,42.8,91.8,75.3c9.5,15.1,16,33,13.5,51.1c-2.5,18.1-18.3,33.3-19,51.5C665.1,484.5,703.6,518.4,711.7,552.4
		C711.7,556.1,710.4,546.7,711.7,552.4z"/>
	<path id="XMLID_3_" class="st1" d="M456.3,796.7c-4.4,0-8.9-0.2-13.4-0.6c-41.1-3.8-78.4-25.4-110.8-64.3c-24.1-29-42-63-56.3-92.5
		c-14.1-29.2-26.3-59-38.1-87.9c-16.8-41.1-32.6-79.9-53.4-116.3c-11.9-20.8-31.3-40.1-51.8-60.5c-31.6-31.4-67.3-67-82.3-116.9
		C34.3,204.7,46.2,156.8,83,126.3c29.7-24.7,62.3-27.8,87.4-27.8c6.7,0,13.2,0.2,19.4,0.5c5.8,0.2,11.2,0.4,16.5,0.4
		c1.3,0,2.6,0,3.9,0c19.4-0.4,36.2-14.5,61.6-37.6c28.5-25.9,63.9-58.2,115.7-58.4l0.4,0c27.7,0,66.8,9.9,95.7,57.2
		c16,26.1,25.1,57.3,33.2,84.8c5.1,17.4,10.4,35.4,15.6,45c6.3,11.4,19.7,18.3,41.1,28.6c9.5,4.6,19.4,9.3,29.5,15.3
		c40.3,23.7,81.9,50.2,107.1,90.1c16.8,26.5,23.7,54.7,20,81.3c-2.2,16.2-9.1,29.3-14.1,38.9c-1.5,2.8-3.6,7-4.5,9.1
		c1,6.3,10.5,21.5,16.3,30.7c10.5,16.7,22.3,35.6,27.6,57.5l1.3,5.4v5.3c0,36.8-14.6,67.3-42.2,88c-20.7,15.6-45.2,23.4-66.9,30.3
		c-15.8,5-32.1,10.2-40.7,16.8c-11.1,8.5-20.9,21.6-31.3,35.3C552.1,754,520,796.7,456.3,796.7z"/>
	<path id="XMLID_1_" class="st0" d="M711.7,552.4c0,76.6-88.3,65.6-132.2,99.4c-47.2,36.3-60.8,106-132.5,99.4
		c-65.5-6-105.2-78.9-130.7-131.7c-33-68.1-55.2-140.9-93-206.9c-35-61.2-109.7-100.1-130.1-168c-9-30.1-7.2-62.4,18.5-83.8
		c29.2-24.3,64.7-15.9,99.4-16.6c74.5-1.7,106.7-95.7,176.4-96c75.5-0.2,78.9,115.6,105.3,163.6c18.5,33.6,55.7,42.4,87.3,61
		c32.4,19,71.3,42.8,91.8,75.3c9.5,15.1,16,33,13.5,51.1c-2.5,18.1-18.3,33.3-19,51.5C665.1,484.5,703.6,518.4,711.7,552.4
		C711.7,556.1,710.4,546.7,711.7,552.4z"/>
</g>
<g id="XMLID_4_">
</g>
<g id="XMLID_5_">
</g>
<g id="XMLID_6_">
</g>
<g id="XMLID_7_">
</g>
<g id="XMLID_8_">
</g>
<g id="XMLID_9_">
</g>
</svg>
